Coordinates
version=1
nRows=14
nColumns=24
inDegrees=yes

Units are S.I. units (second, meters, Newtons, ...)
Angles are in degrees.

endheader
time	pelvis_tilt	pelvis_list	pelvis_rotation	pelvis_tx	pelvis_ty	pelvis_tz	hip_flexion_r	hip_adduction_r	hip_rotation_r	knee_angle_r	ankle_angle_r	subtalar_angle_r	mtp_angle_r	hip_flexion_l	hip_adduction_l	hip_rotation_l	knee_angle_l	ankle_angle_l	subtalar_angle_l	mtp_angle_l	lumbar_extension	lumbar_bending	lumbar_rotation
      1.02916667	     -7.27950077	     -3.24903366	     -2.86837108	     -0.13814277	      1.00977906	      0.32205495	     -0.98600382	      9.20271712	      0.08264972	    -13.72133249	     12.68232404	      0.85514751	      8.56908381	     26.76645316	     -3.42741252	    -12.34841497	      5.85426617	      4.00380418	      9.33221783	      1.61024435	      1.33130052	      2.66792385	      8.71124649
      1.03333333	     -7.26625300	     -3.17643092	     -2.88095991	     -0.13276263	      1.00903481	      0.32170198	     -1.15781967	      9.09732127	      0.15933790	    -14.07019915	     12.81049489	      0.77567478	      8.57909112	     26.83117168	     -3.25288846	    -12.13295817	      5.45590109	      4.01785140	      9.35378885	      1.64519817	      1.29333276	      2.58353520	      8.72987314
      1.03750000	     -7.24039794	     -3.09116638	     -2.89563836	     -0.12731467	      1.00832591	      0.32136341	     -1.32922932	      8.98045994	      0.24043898	    -14.45700041	     12.98499329	      0.69812071	      8.59561053	     26.87198236	     -3.07047725	    -11.91241958	      5.01033081	      4.08828596	      9.34844572	      1.71215214	      1.29559709	      2.49382805	      8.75371836
      1.04166667	     -7.21977522	     -3.00473889	     -2.90284056	     -0.12186978	      1.00762151	      0.32104138	     -1.47779152	      8.86841900	      0.33329219	    -14.87521855	     13.11892351	      0.61979988	      8.61183216	     26.92817657	     -2.89247586	    -11.68063892	      4.49684413	      4.08966057	      9.32690092	      1.78350595	      1.28067342	      2.38817374	      8.77964372
      1.04583333	     -7.18564474	     -2.90665584	     -2.90068712	     -0.11638937	      1.00695191	      0.32072952	     -1.62632860	      8.74908363	      0.43020690	    -15.32316169	     13.23460268	      0.51772450	      8.62824797	     26.96751906	     -2.70436665	    -11.43810799	      3.94415346	      4.04828747	      9.27623122	      1.85979355	      1.25648362	      2.26467798	      8.80423970
      1.05000000	     -7.13120366	     -2.81615702	     -2.90503519	     -0.11088729	      1.00633988	      0.32045546	     -1.78549044	      8.64486918	      0.56776665	    -15.79481815	     13.30176891	      0.36823682	      8.75679132	     26.93180077	     -2.52387712	    -10.96312043	      3.46542705	      3.79808513	      8.75189816	      2.57868535	      1.22018730	      2.14014676	      8.87718164
      1.05416667	     -7.05546333	     -2.70538231	     -2.87659806	     -0.10533635	      1.00576405	      0.32015125	     -1.95844545	      8.52264131	      0.68180958	    -16.27951775	     13.31464443	      0.16923919	      9.40216792	     26.92141192	     -2.32104871	    -10.67334749	      2.86112797	      3.61488257	      8.58250369	      6.06638409	      1.15307573	      1.97586379	      8.85112241
      1.05833333	     -7.00174958	     -2.57883011	     -2.86474462	     -0.09977569	      1.00518625	      0.31986399	     -2.06660574	      8.38488031	      0.78811889	    -16.85211192	     13.37745936	     -0.00112042	      9.40738647	     26.92931657	     -2.11435724	    -10.43961960	      2.23763432	      3.42360433	      8.53298965	      6.07759957	      1.11341635	      1.82049495	      8.86492311
      1.06250000	     -6.96487173	     -2.46815472	     -2.85630843	     -0.09419890	      1.00461052	      0.31962071	     -2.15062658	      8.27998128	      0.97222897	    -17.43465453	     13.33149340	     -0.29888420	      9.44016661	     26.90346613	     -1.92078468	     -9.92237266	      1.70130978	      3.04074076	      7.92087864	      6.17625128	      1.11566339	      1.65113429	      8.88821062
      1.06666667	     -6.87298841	     -2.34177445	     -2.82821304	     -0.08859299	      1.00414630	      0.31933932	     -2.26983263	      8.15302312	      1.10197157	    -18.06086269	     13.27753515	     -0.55438680	      9.49493792	     26.82205962	     -1.70396218	     -9.43880665	      1.14490811	      2.65947578	      7.38150051	      6.31217066	      1.03995689	      1.47011280	      8.89025407
      1.07083333	     -6.81685692	     -2.21414697	     -2.80275587	     -0.08297967	      1.00365254	      0.31905884	     -2.31788449	      8.02906085	      1.22892022	    -18.74902653	     13.18583713	     -0.82018184	      9.56939382	     26.77760230	     -1.49027520	     -8.94095805	      0.58095666	      2.22195475	      6.78780768	      6.46346923	      1.01482059	      1.29041581	      8.88912893
      1.07500000	     -6.72529176	     -2.07642927	     -2.77358311	     -0.07734426	      1.00325378	      0.31876750	     -2.38158636	      7.89296823	      1.34568938	    -19.47750474	     13.05092676	     -1.08552101	      9.66674988	     26.68151384	     -1.26413477	     -8.41897874	      0.03790958	      1.72532606	      6.11928623	      6.62733974	      0.94299588	      1.09488416	      8.88654581
      1.07916667	     -6.66311442	     -1.93505212	     -2.74023057	     -0.07169964	      1.00283974	      0.31846748	     -2.37872495	      7.75537213	      1.44516339	    -20.27235584	     12.87754900	     -1.33993797	      9.78969229	     26.61431646	     -1.03553538	     -7.88034945	     -0.50383948	      1.19057622	      5.40655456	      6.79593072	      0.91054409	      0.89638621	      8.88042253
      1.08333333	     -6.60315645	     -1.79391013	     -2.71065206	     -0.06605343	      1.00245822	      0.31815588	     -2.34001582	      7.61394867	      1.51805756	    -21.12289856	     12.66018028	     -1.58440557	      9.94522108	     26.54482921	     -0.80993393	     -7.32159023	     -1.04246931	      0.61641029	      4.62886192	      6.96948631	      0.88429322	      0.69950762	      8.86221045
